<svg width="325" height="221" viewBox="0 0 325 221" fill="none" xmlns="http://www.w3.org/2000/svg">
<path d="M329.343 244.651C307.546 244.651 287.435 239.595 269.009 229.484C250.807 219.147 236.313 204.878 225.527 186.677C214.966 168.251 209.686 147.577 209.686 124.657C209.686 101.737 214.966 81.176 225.527 62.9747C236.313 44.7733 250.807 30.6167 269.009 20.5049C287.435 10.1683 307.546 5 329.343 5C351.364 5 371.476 10.1683 389.677 20.5049C408.103 30.6167 422.597 44.7733 433.158 62.9747C443.719 81.176 449 101.737 449 124.657C449 147.577 443.719 168.251 433.158 186.677C422.597 204.878 408.103 219.147 389.677 229.484C371.476 239.595 351.364 244.651 329.343 244.651ZM329.343 211.282C344.848 211.282 358.667 207.799 370.801 200.833C382.936 193.643 392.373 183.531 399.115 170.498C406.081 157.24 409.564 141.96 409.564 124.657C409.564 107.355 406.081 92.1868 399.115 79.1537C392.373 66.1206 382.936 56.1211 370.801 49.1551C358.667 42.1892 344.848 38.7062 329.343 38.7062C313.838 38.7062 300.018 42.1892 287.884 49.1551C275.75 56.1211 266.2 66.1206 259.234 79.1537C252.492 92.1868 249.122 107.355 249.122 124.657C249.122 141.96 252.492 157.24 259.234 170.498C266.2 183.531 275.75 193.643 287.884 200.833C300.018 207.799 313.838 211.282 329.343 211.282Z" fill="#33046D" fill-opacity="0.05"/>
<path d="M267.796 231.619L267.811 231.628L267.827 231.637C286.629 241.955 307.149 247.108 329.343 247.108C351.757 247.108 372.282 241.957 390.87 231.631L390.879 231.626C409.686 221.075 424.5 206.493 435.282 187.909L435.289 187.898C446.08 169.071 451.456 147.971 451.456 124.657C451.456 101.344 446.08 80.3508 435.282 61.742C424.5 43.1593 409.686 28.6871 390.874 18.3603C372.288 7.80848 351.76 2.54377 329.343 2.54377C307.141 2.54377 286.615 7.81276 267.811 18.3605C249.225 28.6872 234.418 43.1545 223.414 61.7225L223.409 61.7322L223.403 61.742C212.605 80.3508 207.229 101.344 207.229 124.657C207.229 147.971 212.605 169.071 223.396 187.898L223.405 187.914L223.414 187.929C234.416 206.494 249.218 221.069 267.796 231.619ZM396.94 169.355L396.937 169.362L396.933 169.369C390.397 182.006 381.279 191.766 369.564 198.712C357.844 205.436 344.46 208.826 329.343 208.826C314.226 208.826 300.841 205.436 289.121 198.711C277.406 191.765 268.173 182.003 261.412 169.362C254.88 156.507 251.578 141.626 251.578 124.657C251.578 107.684 254.882 92.9205 261.408 80.2968C268.169 67.6532 277.399 58.0063 289.107 51.2853C300.83 44.5555 314.219 41.1625 329.343 41.1625C344.466 41.1625 357.856 44.5555 369.579 51.2853C381.283 58.0046 390.397 67.6467 396.933 80.2822L396.941 80.2969L396.948 80.3115C403.694 92.932 407.107 107.689 407.107 124.657C407.107 141.624 403.694 156.501 396.94 169.355Z" stroke="#33046D" stroke-opacity="0.05" stroke-width="4.91246"/>
<path d="M123.718 242.77C102.092 242.77 82.1386 237.754 63.8572 227.721C45.7987 217.466 31.4189 203.309 20.7175 185.25C10.2392 166.969 5 146.458 5 123.718C5 100.978 10.2392 80.578 20.7175 62.5196C31.4189 44.4611 45.7987 30.4156 63.8572 20.3831C82.1386 10.1277 102.092 5 123.718 5C145.566 5 165.52 10.1277 183.578 20.3831C201.86 30.4156 216.24 44.4611 226.718 62.5196C237.196 80.578 242.435 100.978 242.435 123.718C242.435 146.458 237.196 166.969 226.718 185.25C216.24 203.309 201.86 217.466 183.578 227.721C165.52 237.754 145.566 242.77 123.718 242.77ZM123.718 209.663C139.101 209.663 152.812 206.207 164.851 199.296C176.89 192.162 186.254 182.129 192.942 169.198C199.853 156.045 203.309 140.884 203.309 123.718C203.309 106.551 199.853 91.5023 192.942 78.5715C186.254 65.6408 176.89 55.7197 164.851 48.8085C152.812 41.8972 139.101 38.4416 123.718 38.4416C108.335 38.4416 94.6235 41.8972 82.5845 48.8085C70.5456 55.7197 61.0704 65.6408 54.1591 78.5715C47.4708 91.5023 44.1266 106.551 44.1266 123.718C44.1266 140.884 47.4708 156.045 54.1591 169.198C61.0704 182.129 70.5456 192.162 82.5845 199.296C94.6235 206.207 108.335 209.663 123.718 209.663Z" fill="#33046D" fill-opacity="0.05"/>
<path d="M62.6443 229.857L62.6598 229.866L62.6755 229.874C81.3328 240.113 101.695 245.226 123.718 245.226C145.959 245.226 166.327 240.115 184.771 229.868L184.78 229.863C203.443 219.394 218.142 204.923 228.842 186.483L228.849 186.472C239.557 167.789 244.892 146.852 244.892 123.718C244.892 100.584 239.557 79.7528 228.842 61.2868C218.143 42.8471 203.442 28.486 184.776 18.2385C166.332 7.7679 145.962 2.54377 123.718 2.54377C101.687 2.54377 81.3188 7.77218 62.6595 18.2387C44.2163 28.4861 29.523 42.8423 18.6045 61.2674L18.5987 61.2771L18.5931 61.2868C7.87825 79.7528 2.54377 100.584 2.54377 123.718C2.54377 146.852 7.8783 167.789 18.5865 186.472L18.5954 186.487L18.6045 186.503C29.5213 204.925 44.2098 219.388 62.6443 229.857ZM190.768 168.056L190.764 168.063L190.76 168.07C184.277 180.604 175.233 190.285 163.613 197.174C151.989 203.844 138.713 207.206 123.718 207.206C108.722 207.206 95.446 203.843 83.8217 197.174C72.2018 190.284 63.0435 180.601 56.3373 168.063C49.8584 155.311 46.5829 140.551 46.5829 123.718C46.5829 106.88 49.86 92.236 56.3332 79.7147C63.0394 67.1734 72.1952 57.6049 83.8074 50.9387C95.4351 44.2635 108.716 40.8978 123.718 40.8978C138.719 40.8978 152 44.2635 163.628 50.9387C175.237 57.6033 184.278 67.1668 190.76 79.7L190.768 79.7147L190.776 79.7294C197.466 92.2475 200.853 106.886 200.853 123.718C200.853 140.549 197.467 155.306 190.768 168.056Z" stroke="#33046D" stroke-opacity="0.05" stroke-width="4.91246"/>
</svg>
