<svg width="174" height="59" viewBox="0 0 174 59" fill="none" xmlns="http://www.w3.org/2000/svg">
<g filter="url(#filter0_d_56_90)">
<path d="M164.148 33.2654V9.34659C164.148 7.88492 162.963 6.7 161.502 6.7C160.04 6.7 158.855 7.88492 158.855 9.34659V18.9682H145.993V9.34659C145.993 7.88492 144.808 6.7 143.347 6.7C141.885 6.7 140.7 7.88492 140.7 9.34659V33.2654C140.7 34.727 141.885 35.912 143.347 35.912C144.808 35.912 145.993 34.727 145.993 33.2654V23.3968H158.855V33.2654C158.855 34.727 160.04 35.912 161.502 35.912C162.963 35.912 164.148 34.727 164.148 33.2654Z" fill="#33046D" stroke="#33046D" stroke-width="0.6"/>
<path d="M68.0975 34.679L68.0975 34.679L68.1013 34.6811C70.3977 35.9413 72.904 36.5707 75.6147 36.5707C78.3523 36.5707 80.8593 35.9416 83.1296 34.6803L83.1306 34.6797C85.4278 33.3911 87.2371 31.61 88.5541 29.3403L88.5549 29.3389C89.8729 27.0394 90.5295 24.4623 90.5295 21.6147C90.5295 18.7673 89.8729 16.2032 88.5541 13.9304C87.2371 11.6607 85.4277 9.8931 83.1301 8.6318C80.86 7.34302 78.3528 6.7 75.6147 6.7C72.903 6.7 70.3961 7.34354 68.0994 8.63179C65.8293 9.89309 64.0208 11.6601 62.6768 13.928L62.6768 13.928L62.6754 13.9304C61.3566 16.2032 60.7 18.7673 60.7 21.6147C60.7 24.4623 61.3566 27.0394 62.6746 29.3389L62.6746 29.3389L62.6768 29.3427C64.0205 31.6102 65.8285 33.3904 68.0975 34.679ZM83.8701 16.1949L83.8701 16.1949L83.872 16.1984C84.6959 17.7399 85.1128 19.5423 85.1128 21.6147C85.1128 23.687 84.6959 25.5041 83.871 27.0741L83.8701 27.0758C83.0718 28.6192 81.9581 29.8113 80.5273 30.6596C79.0959 31.4809 77.4611 31.895 75.6147 31.895C73.7684 31.895 72.1336 31.4809 70.7022 30.6596C69.2713 29.8113 68.1435 28.6189 67.3178 27.0749C66.52 25.5048 66.1167 23.6873 66.1167 21.6147C66.1167 19.5416 66.5202 17.7385 67.3173 16.1966C68.1431 14.6524 69.2705 13.4741 70.7004 12.6532C72.1322 11.8312 73.7676 11.4168 75.6147 11.4168C77.4619 11.4168 79.0973 11.8312 80.5291 12.6532C81.9587 13.4739 83.0719 14.6516 83.8701 16.1949Z" fill="#33046D" stroke="#33046D" stroke-width="0.6"/>
<path d="M125.818 35.5566L125.818 35.5566L125.822 35.5584C127.401 36.2353 129.172 36.5707 131.127 36.5707C133.196 36.5707 135.002 36.1792 136.535 35.3843L136.537 35.3833C138.088 34.5656 139.27 33.4873 140.07 32.1446C140.893 30.81 141.308 29.3842 141.308 27.8723C141.308 26.017 140.872 24.5044 139.969 23.3663C139.116 22.2306 138.061 21.3884 136.805 20.8458C135.607 20.3163 134.055 19.7905 132.154 19.2671L132.152 19.2666C130.73 18.8837 129.618 18.5305 128.81 18.2074C128.022 17.8921 127.373 17.4757 126.858 16.9618C126.396 16.4487 126.158 15.798 126.158 14.9866C126.158 13.7692 126.555 12.8747 127.322 12.2561C128.108 11.6221 129.135 11.2933 130.428 11.2933C131.859 11.2933 132.98 11.6505 133.819 12.337C134.012 12.4948 134.184 12.6587 134.335 12.8283C134.782 13.3309 135.293 13.8903 135.87 14.3226C136.448 14.7564 137.117 15.0808 137.88 15.0808C138.72 15.0808 139.492 14.713 139.976 14.1385C140.466 13.5575 140.66 12.7608 140.315 11.9513C139.796 10.7317 138.989 9.70177 137.899 8.86335C136.078 7.41321 133.744 6.7 130.922 6.7C128.939 6.7 127.181 7.03508 125.654 7.7139C124.125 8.39345 122.926 9.37555 122.068 10.6622C121.208 11.9519 120.782 13.4521 120.782 15.1513C120.782 16.9802 121.205 18.4783 122.08 19.6157C122.931 20.7225 123.957 21.5508 125.158 22.0939L125.158 22.094L125.166 22.0973C126.363 22.5986 127.901 23.0967 129.774 23.5927L129.776 23.593C131.253 23.976 132.392 24.3291 133.198 24.6516L133.201 24.6528C134.014 24.9673 134.673 25.4091 135.187 25.9745L135.187 25.9746L135.192 25.9799C135.707 26.5194 135.973 27.2234 135.973 28.1193C135.973 29.2696 135.557 30.2016 134.719 30.9387C133.884 31.6457 132.7 32.0185 131.127 32.0185C129.614 32.0185 128.474 31.6346 127.667 30.9039C127.422 30.6745 127.211 30.4267 127.033 30.1606C126.276 29.0294 125.15 27.7782 123.623 27.7782C122.818 27.7782 122.065 28.1133 121.575 28.6519C121.08 29.1966 120.853 29.954 121.131 30.754C121.357 31.4026 121.671 32.0097 122.073 32.5747C122.986 33.8581 124.238 34.851 125.818 35.5566Z" fill="#33046D" stroke="#33046D" stroke-width="0.6"/>
<path d="M120.993 33.6534V9.34659C120.993 7.88492 119.808 6.7 118.347 6.7C116.885 6.7 115.7 7.88492 115.7 9.34659V33.6534C115.7 35.1151 116.885 36.3 118.347 36.3C119.808 36.3 120.993 35.1151 120.993 33.6534Z" fill="#33046D" stroke="#33046D" stroke-width="0.6"/>
<path d="M43.0406 34.4637L43.0406 34.4637L43.0444 34.4658C45.3232 35.7164 47.8102 36.3408 50.5 36.3408C53.2165 36.3408 55.7042 35.7166 57.957 34.4651L57.958 34.4645C60.2375 33.1857 62.0329 31.4183 63.3398 29.1661L63.3406 29.1647C64.6485 26.8828 65.3 24.3255 65.3 21.5C65.3 18.6745 64.6485 16.1302 63.3398 13.8748C62.0329 11.6226 60.2374 9.86854 57.9575 8.61693C55.7049 7.33806 53.2169 6.7 50.5 6.7C47.8092 6.7 45.3215 7.33858 43.0425 8.61693C40.7898 9.86852 38.9952 11.622 37.6616 13.8724L37.6616 13.8724L37.6602 13.8748C36.3515 16.1302 35.7 18.6745 35.7 21.5C35.7 24.3255 36.3516 26.8828 37.6594 29.1647L37.6594 29.1647L37.6616 29.1684C38.995 31.4185 40.789 33.185 43.0406 34.4637ZM58.6885 16.1237L58.6884 16.1238L58.6904 16.1273C59.5076 17.6563 59.9211 19.4442 59.9211 21.5C59.9211 23.5557 59.5076 25.3581 58.6894 26.9154L58.6885 26.9171C57.8966 28.448 56.792 29.6304 55.3727 30.4719C53.953 31.2865 52.3315 31.6972 50.5 31.6972C48.6685 31.6972 47.047 31.2865 45.6273 30.4719C44.208 29.6304 43.0894 28.4477 42.2702 26.9162C41.4789 25.3588 41.0789 23.556 41.0789 21.5C41.0789 19.4435 41.4791 17.6549 42.2698 16.1256C43.0888 14.5938 44.2071 13.4251 45.6254 12.6109C47.0456 11.7956 48.6677 11.3845 50.5 11.3845C52.3323 11.3845 53.9544 11.7956 55.3746 12.6109C56.7925 13.4249 57.8967 14.593 58.6885 16.1237Z" fill="#33046D" stroke="#33046D" stroke-width="0.6"/>
<path d="M38.1972 32.3659C39.0086 31.1195 39.4137 29.7273 39.4137 28.1971C39.4137 26.4038 38.8477 24.7942 37.7211 23.3787C36.8101 22.2341 35.73 21.4499 34.4832 21.0375C35.6387 20.5022 36.5948 19.7669 37.3451 18.8291C38.2848 17.6544 38.746 16.1941 38.746 14.4691C38.746 13.0237 38.3694 11.715 37.6136 10.5516C36.8552 9.3563 35.7371 8.41762 34.2759 7.72999C32.8083 7.03934 31.0656 6.7 29.0576 6.7H18H17.7V7V36V36.3H18H29.6C31.5541 36.3 33.2815 35.9601 34.7746 35.2709L34.7747 35.271L34.7789 35.2689C36.2672 34.5534 37.4117 33.5874 38.1972 32.3659ZM38.1972 32.3659C38.197 32.3661 38.1969 32.3663 38.1967 32.3666L37.9453 32.2029M38.1972 32.3659C38.1974 32.3656 38.1975 32.3654 38.1977 32.3651L37.9453 32.2029M37.9453 32.2029C37.1942 33.3712 36.0954 34.3031 34.6489 34.9986M37.9453 32.2029C38.7242 31.0067 39.1137 29.6715 39.1137 28.1971C39.1137 26.4724 38.5712 24.9285 37.4863 23.5655C36.5276 22.3609 35.3841 21.5799 34.056 21.2226L34.6489 34.9986M34.6489 34.9986C33.2024 35.6662 31.5194 36 29.6 36H18.3H18L34.6489 34.9986ZM32.0735 12.2334L32.0734 12.2335L32.0813 12.24C32.891 12.8979 33.3058 13.8219 33.3058 15.0532C33.3058 16.3144 32.8896 17.2511 32.0819 17.9077C31.2909 18.5455 30.1567 18.8842 28.6403 18.8842H23.0568V11.1806H28.6403C30.152 11.1806 31.2828 11.5448 32.0735 12.2334ZM32.7858 30.7223C31.938 31.4416 30.7494 31.8194 29.1827 31.8194H23.0568V23.3648H29.0158C30.5767 23.3648 31.7948 23.7675 32.7012 24.5443C33.6007 25.3154 34.0568 26.3548 34.0568 27.6964C34.0568 29.0144 33.6258 30.0096 32.7858 30.7223Z" fill="#33046D" stroke="#33046D" stroke-width="0.6"/>
<path d="M103.455 32.1862L98.6919 23.3956L113.287 28.908C114.012 29.1817 114.82 29.1269 115.501 28.7579C117.521 27.6629 117.303 24.6951 115.144 23.9072L101.801 19.0378L103.242 9.95226C103.593 7.74161 101.256 6.08847 99.2885 7.15482C98.5311 7.5652 98.0149 8.31227 97.8991 9.16585L96.513 19.3745L91.682 10.4588C90.9651 9.13589 89.3116 8.64456 87.9887 9.3614C86.6658 10.0782 86.1744 11.7318 86.8913 13.0547L98.6644 34.782C99.3812 36.105 101.035 36.5963 102.358 35.8795C103.681 35.1626 104.172 33.5091 103.455 32.1862Z" fill="#33046D" stroke="#33046D" stroke-width="0.6"/>
</g>
<defs>
<filter id="filter0_d_56_90" x="0.399902" y="2.39999" width="173.049" height="56.4707" filterUnits="userSpaceOnUse" color-interpolation-filters="sRGB">
<feFlood flood-opacity="0" result="BackgroundImageFix"/>
<feColorMatrix in="SourceAlpha" type="matrix" values="0 0 0 0 0 0 0 0 0 0 0 0 0 0 0 0 0 0 127 0" result="hardAlpha"/>
<feOffset dx="-4" dy="9"/>
<feGaussianBlur stdDeviation="6.5"/>
<feComposite in2="hardAlpha" operator="out"/>
<feColorMatrix type="matrix" values="0 0 0 0 0.541667 0 0 0 0 0.422049 0 0 0 0 0.422049 0 0 0 0.08 0"/>
<feBlend mode="normal" in2="BackgroundImageFix" result="effect1_dropShadow_56_90"/>
<feBlend mode="normal" in="SourceGraphic" in2="effect1_dropShadow_56_90" result="shape"/>
</filter>
</defs>
</svg>
